<?xml version="1.0" encoding="utf-8"?>
<!-- Generator: Adobe Illustrator 16.0.4, SVG Export Plug-In . SVG Version: 6.00 Build 0)  -->
<!DOCTYPE svg PUBLIC "-//W3C//DTD SVG 1.1//EN" "http://www.w3.org/Graphics/SVG/1.1/DTD/svg11.dtd">
<svg version="1.1" id="Layer_1" xmlns="http://www.w3.org/2000/svg" xmlns:xlink="http://www.w3.org/1999/xlink" x="0px" y="0px"
	 width="25.001px" height="47.633px" viewBox="0 0 25.001 47.633" enable-background="new 0 0 25.001 47.633" xml:space="preserve">
<rect x="-106.646" y="-19.336" display="none" fill="#009640" width="230.5" height="90.5"/>
<g display="none">
	<path display="inline" fill="#F49715" d="M83.088,17.212L70.959,5.085c-2.029-2.03-4.783-3.171-7.654-3.171H-48.386
		c-5.979,0-10.825,4.847-10.825,10.825v22.35c0,5.979,4.847,10.825,10.825,10.825H63.305c2.871,0,5.625-1.141,7.654-3.171
		l12.129-12.128C86.789,26.914,86.789,20.914,83.088,17.212z"/>
	<path display="inline" fill="#FFFFFF" d="M63.305,46.414H-48.386c-6.245,0-11.325-5.08-11.325-11.325v-22.35
		c0-6.245,5.081-11.325,11.325-11.325H63.305c3.025,0,5.869,1.178,8.008,3.317l12.129,12.127c3.889,3.891,3.889,10.221,0,14.11
		L71.312,43.097C69.174,45.236,66.33,46.414,63.305,46.414z M-48.386,2.414c-5.693,0-10.325,4.632-10.325,10.325v22.35
		c0,5.693,4.632,10.325,10.325,10.325H63.305c2.758,0,5.352-1.074,7.301-3.024l12.129-12.128c3.5-3.5,3.5-9.196,0-12.696
		L70.605,5.438c-1.949-1.95-4.543-3.024-7.301-3.024H-48.386z"/>
</g>
<g>
	<path fill="#F49715" d="M7.338,12.739v22.35c0,5.979,4.847,10.825,10.825,10.825v-44C12.185,1.914,7.338,6.761,7.338,12.739z"/>
	<path fill="#FFFFFF" d="M7.838,35.089v-22.35c0-5.693,4.632-10.325,10.325-10.325v-1c-6.244,0-11.325,5.081-11.325,11.325v22.35
		c0,6.245,5.081,11.325,11.325,11.325v-1C12.47,45.414,7.838,40.782,7.838,35.089z"/>
</g>
<g display="none">
	<path display="inline" fill="#FFFFFF" d="M8.274,5.438l12.13,12.127c3.5,3.5,3.5,9.196,0,12.696L8.274,42.39
		c-1.949,1.95-4.543,3.024-7.301,3.024v1c3.025,0,5.869-1.178,8.008-3.317l12.13-12.128c3.889-3.89,3.889-10.22,0-14.11L8.981,4.731
		C6.843,2.592,3.999,1.414,0.974,1.414v1C3.731,2.414,6.325,3.488,8.274,5.438z"/>
	<path display="inline" fill="#F49715" d="M8.628,42.743l12.13-12.128c3.701-3.701,3.701-9.702,0-13.403L8.628,5.085
		c-2.029-2.03-4.783-3.171-7.654-3.171v44C3.845,45.914,6.599,44.773,8.628,42.743z"/>
</g>
</svg>
