<?xml version="1.0" encoding="utf-8"?>
<!-- Generator: Adobe Illustrator 16.0.0, SVG Export Plug-In . SVG Version: 6.00 Build 0)  -->
<!DOCTYPE svg PUBLIC "-//W3C//DTD SVG 1.1//EN" "http://www.w3.org/Graphics/SVG/1.1/DTD/svg11.dtd">
<svg version="1.1" id="Layer_1" xmlns="http://www.w3.org/2000/svg" xmlns:xlink="http://www.w3.org/1999/xlink" x="0px" y="0px"
	 width="600px" height="300px" viewBox="0 0 600 300" enable-background="new 0 0 600 300" xml:space="preserve">
<g>
	<g>
		<path fill="#F3981F" d="M499.209,133.308l46.898-46.897l-35.869-35.866c-6.091-6.092-15.967-6.092-22.061,0l-35.866,35.866
			L499.209,133.308z"/>
		<polygon fill="#F3971F" points="456.482,130.84 456.482,211.6 499.209,254.324 541.937,211.597 541.937,130.84 499.209,173.568 		
			"/>
		<path fill="#F3971F" d="M595.583,135.888l-25.18-25.18v72.421l25.18-25.178C601.677,151.858,601.677,141.98,595.583,135.888z"/>
		<path fill="#F3971F" d="M402.835,135.888l25.181-25.18v72.421l-25.181-25.178C396.742,151.858,396.742,141.98,402.835,135.888z"/>
	</g>
	<g>
		<path fill="#F3971F" d="M78.598,201.567v-70.167H92.62l20.29,29.33l20.291-29.33h14.022v70.167h-12.636v-51.88l-21.677,31.025
			l-21.676-31.025v51.88H78.598z"/>
		<path fill="#F3971F" d="M161.76,175.884c0-8.424,1.875-15.153,5.625-20.187c3.75-5.034,9.699-7.55,17.85-7.55
			c7.705,0,13.535,2.448,17.491,7.345c3.956,4.896,5.932,10.924,5.932,18.083c0,2.943-0.069,5.116-0.206,6.521h-34.055
			c0.341,4.557,1.704,7.604,4.083,9.146c2.38,1.539,5.471,2.31,9.271,2.31c6.164,0,12.123-1.353,17.876-4.059v10.174
			c-5.823,3.148-12.414,4.722-19.776,4.722c-2.33,0-4.521-0.186-6.574-0.562c-2.055-0.377-4.185-1.165-6.389-2.364
			c-2.204-1.199-4.1-2.723-5.689-4.571c-1.586-1.849-2.89-4.409-3.91-7.68C162.271,183.94,161.76,180.165,161.76,175.884z
			 M174.397,171.364h21.164c-0.344-3.602-1.413-6.643-3.21-9.121c-1.798-2.48-4.274-3.721-7.423-3.721
			c-3.152,0-5.607,1.013-7.372,3.03C175.792,163.576,174.738,166.848,174.397,171.364z"/>
		<path fill="#F3971F" d="M218.83,174.704c0-8.545,2.087-15.091,6.267-19.637c4.176-4.545,10.187-6.819,18.029-6.819
			c2.807,0,5.718,0.275,8.731,0.823v-20.188h12.637v55.812c0,4.836-1.822,8.992-5.47,12.473s-9.221,5.22-16.721,5.22
			c-1.747,0-3.485-0.136-5.213-0.41c-1.729-0.272-3.75-0.993-6.061-2.16s-4.325-2.676-6.036-4.528
			c-1.713-1.854-3.169-4.571-4.367-8.155C219.428,183.546,218.83,179.401,218.83,174.704z M231.466,174.033
			c0,6.182,0.803,10.647,2.414,13.396c1.609,2.746,4.417,4.121,8.424,4.121c6.37,0,9.554-1.89,9.554-5.669v-26.896
			c-2.465-0.546-5.239-0.84-8.32-0.874c-3.939,0-6.935,1.178-8.989,3.53C232.492,163.994,231.466,168.124,231.466,174.033z"/>
		<path fill="#F3971F" d="M276.668,175.884c0-8.424,1.876-15.153,5.626-20.187c3.749-5.034,9.698-7.55,17.848-7.55
			c7.705,0,13.536,2.448,17.492,7.345c3.953,4.896,5.932,10.924,5.932,18.083c0,2.943-0.069,5.116-0.208,6.521h-34.054
			c0.342,4.557,1.704,7.604,4.084,9.146c2.38,1.539,5.471,2.31,9.271,2.31c6.164,0,12.123-1.353,17.876-4.059v10.174
			c-5.822,3.148-12.413,4.722-19.777,4.722c-2.329,0-4.52-0.186-6.573-0.562c-2.055-0.377-4.185-1.165-6.389-2.364
			c-2.204-1.199-4.1-2.723-5.688-4.571c-1.588-1.849-2.892-4.409-3.91-7.68C277.178,183.94,276.668,180.165,276.668,175.884z
			 M289.304,171.364h21.163c-0.343-3.602-1.412-6.643-3.208-9.121c-1.799-2.48-4.272-3.721-7.425-3.721
			c-3.15,0-5.607,1.013-7.37,3.03C290.7,163.576,289.646,166.848,289.304,171.364z"/>
		<path fill="#F3971F" d="M335.227,201.567v-72.479h12.637v72.479H335.227z"/>
	</g>
	<g>
		<path fill="#035164" d="M0.71,117.781V92.84h8.271c5.526,0,8.29,2.216,8.29,6.646c0,0.696-0.091,1.344-0.275,1.942
			c-0.185,0.598-0.408,1.075-0.671,1.429c-0.264,0.355-0.522,0.663-0.773,0.925c-0.25,0.264-0.48,0.444-0.688,0.542l-0.258,0.184
			c0.123,0.024,0.273,0.072,0.451,0.145c0.179,0.073,0.512,0.273,1.004,0.601c0.491,0.327,0.917,0.7,1.279,1.12
			c0.363,0.417,0.694,1.012,0.996,1.783c0.3,0.772,0.45,1.617,0.45,2.54c0,4.722-3.015,7.083-9.046,7.083H0.71z M3.413,103.648
			h6.162c1.519,0,2.73-0.263,3.636-0.788c0.905-0.525,1.359-1.578,1.359-3.155c0-1.625-0.442-2.753-1.323-3.383
			c-0.881-0.63-2.221-0.945-4.02-0.945H3.413V103.648z M3.413,115.243H9.95c1.899,0,3.396-0.33,4.491-0.99
			c1.097-0.661,1.644-1.894,1.644-3.701c0-0.763-0.131-1.421-0.393-1.973c-0.262-0.55-0.583-0.981-0.958-1.29
			c-0.378-0.309-0.866-0.546-1.461-0.71c-0.598-0.163-1.15-0.27-1.663-0.319c-0.511-0.047-1.102-0.071-1.77-0.071H3.413V115.243z"/>
		<path fill="#035164" d="M29.717,117.781V92.84h15.739v2.538H32.42v8.618h11.466v2.612H32.42v8.635h13.036v2.538H29.717z"/>
		<path fill="#035164" d="M56.607,117.781V92.84h7.822c7.81,0,11.715,4.155,11.715,12.471c0,8.314-3.905,12.47-11.715,12.47H56.607z
			 M59.309,115.243h4.931c3.189,0,5.52-0.795,6.993-2.387c1.472-1.593,2.209-4.107,2.209-7.545c0-3.439-0.738-5.954-2.209-7.546
			c-1.473-1.592-3.803-2.387-6.993-2.387h-4.931V115.243z"/>
		<path fill="#035164" d="M87.311,117.781V92.84h9.167c2.714,0,4.801,0.618,6.262,1.853c1.461,1.237,2.192,3.035,2.192,5.396
			c0,1.071-0.171,2.044-0.512,2.921c-0.34,0.876-0.728,1.559-1.159,2.044c-0.432,0.488-0.947,0.91-1.543,1.271
			c-0.596,0.357-1.083,0.596-1.46,0.711c-0.377,0.116-0.73,0.21-1.059,0.284l6.847,10.461h-3.177l-6.501-10.06h-6.353v10.06H87.311z
			 M90.014,105.183h6.316c1.242,0,2.28-0.143,3.113-0.43c0.833-0.286,1.439-0.684,1.817-1.196c0.377-0.511,0.633-1.015,0.768-1.515
			c0.133-0.499,0.2-1.086,0.2-1.762c0-0.676-0.067-1.263-0.2-1.761c-0.135-0.5-0.391-1.004-0.768-1.517
			c-0.377-0.51-0.983-0.909-1.817-1.196c-0.833-0.284-1.871-0.428-3.113-0.428h-6.316V105.183z"/>
		<path fill="#035164" d="M116.994,117.781V92.84h2.703v24.94H116.994z"/>
		<path fill="#035164" d="M130.208,116.776v-2.811c1.424,0.998,2.958,1.497,4.602,1.497c1.691,0,2.912-0.417,3.66-1.251
			c0.749-0.833,1.123-2.2,1.123-4.098V92.84h2.703v17.491c0,1.521-0.213,2.822-0.639,3.898c-0.426,1.077-1.008,1.879-1.744,2.402
			c-0.737,0.522-1.492,0.894-2.264,1.114c-0.772,0.218-1.604,0.329-2.492,0.329C133.366,118.074,131.716,117.642,130.208,116.776z"
			/>
		<path fill="#035164" d="M152.276,92.84h2.867l8.052,21.088l7.998-21.088h2.884l-9.585,24.94h-2.648L152.276,92.84z"/>
		<path fill="#035164" d="M184.04,117.781V92.84h15.74v2.538h-13.037v8.618h11.467v2.612h-11.467v8.635h13.037v2.538H184.04z"/>
		<path fill="#035164" d="M210.856,117.781V92.84h3.067l14.88,21.015V92.84h2.703v24.94h-3.031l-14.917-21.015v21.015H210.856z"/>
		<path fill="#035164" d="M244.007,117.781V92.84h8.874c2.787,0,4.923,0.655,6.41,1.965c1.483,1.311,2.227,3.218,2.227,5.723
			c0,2.503-0.744,4.421-2.227,5.749c-1.486,1.328-3.623,1.993-6.41,1.993h-6.172v9.512H244.007z M246.709,105.657h5.825
			c1.329,0,2.432-0.143,3.314-0.431c0.883-0.286,1.525-0.706,1.926-1.255c0.402-0.549,0.675-1.087,0.823-1.612
			c0.146-0.525,0.218-1.136,0.218-1.832c0-0.697-0.072-1.308-0.218-1.833c-0.147-0.525-0.421-1.066-0.823-1.622
			c-0.401-0.555-1.043-0.978-1.926-1.264c-0.882-0.287-1.986-0.431-3.314-0.431h-5.825V105.657z"/>
		<path fill="#035164" d="M268.269,117.781l9.951-24.94h2.685l9.914,24.94h-2.885l-2.995-7.815h-10.754l-2.994,7.815H268.269z
			 M275.189,107.427h8.746l-4.364-11.41L275.189,107.427z"/>
		<path fill="#035164" d="M300.726,117.781V92.84h9.167c2.712,0,4.801,0.618,6.262,1.853c1.458,1.237,2.189,3.035,2.189,5.396
			c0,1.071-0.17,2.044-0.511,2.921c-0.342,0.876-0.728,1.559-1.159,2.044c-0.434,0.488-0.946,0.91-1.544,1.271
			c-0.595,0.357-1.082,0.596-1.461,0.711c-0.376,0.116-0.729,0.21-1.056,0.284l6.844,10.461h-3.176l-6.5-10.06h-6.355v10.06H300.726
			z M303.427,105.183h6.319c1.239,0,2.279-0.143,3.114-0.43c0.831-0.286,1.438-0.684,1.814-1.196
			c0.378-0.511,0.634-1.015,0.768-1.515c0.135-0.499,0.201-1.086,0.201-1.762c0-0.676-0.066-1.263-0.201-1.761
			c-0.134-0.5-0.39-1.004-0.768-1.517c-0.377-0.51-0.983-0.909-1.814-1.196c-0.835-0.284-1.875-0.428-3.114-0.428h-6.319V105.183z"
			/>
		<path fill="#035164" d="M329.732,117.781V92.84h2.702v12.854l11.539-12.854h3.634l-10.699,11.667l11.557,13.273h-3.542
			l-9.768-11.375l-2.721,2.994v8.381H329.732z"/>
	</g>
	<polygon fill="#055265" points="499.209,173.568 456.482,130.84 456.482,211.6 499.209,254.324 541.937,211.597 541.937,130.84 	
		"/>
</g>
</svg>
