<?xml version="1.0" encoding="utf-8"?>
<!-- Generator: Adobe Illustrator 16.0.4, SVG Export Plug-In . SVG Version: 6.00 Build 0)  -->
<!DOCTYPE svg PUBLIC "-//W3C//DTD SVG 1.1//EN" "http://www.w3.org/Graphics/SVG/1.1/DTD/svg11.dtd">
<svg version="1.1" id="Layer_1" xmlns="http://www.w3.org/2000/svg" xmlns:xlink="http://www.w3.org/1999/xlink" x="0px" y="0px"
	 width="796px" height="796px" viewBox="0 0 796 796" enable-background="new 0 0 796 796" xml:space="preserve">
<path display="none" fill="#F49715" d="M756.757,425.242L398,784L39.242,425.242c-21.278-21.278-21.278-55.775,0-77.053
	l320.23-320.231c21.278-21.278,55.776-21.278,77.054,0l320.23,320.231C778.036,369.467,778.036,403.964,756.757,425.242z"/>
<path fill="#F49715" d="M756.757,425.242L398,784L39.242,425.242c-10.614-10.614-15.934-24.519-15.958-38.43h749.433
	C772.717,400.756,767.396,414.603,756.757,425.242z"/>
<path fill="#F49715" d="M772.714,386.814c0.024-13.976-5.293-27.96-15.957-38.624L436.527,27.959
	c-21.278-21.278-55.776-21.278-77.054,0L39.242,348.19c-10.664,10.664-15.981,24.647-15.956,38.624H772.714z"/>
</svg>
