<?xml version="1.0" encoding="utf-8"?>
<!-- Generator: Adobe Illustrator 16.0.4, SVG Export Plug-In . SVG Version: 6.00 Build 0)  -->
<!DOCTYPE svg PUBLIC "-//W3C//DTD SVG 1.1//EN" "http://www.w3.org/Graphics/SVG/1.1/DTD/svg11.dtd">
<svg version="1.1" id="Layer_1" xmlns="http://www.w3.org/2000/svg" xmlns:xlink="http://www.w3.org/1999/xlink" x="0px" y="0px"
	 width="1698.5px" height="1698.5px" viewBox="0 0 1698.5 1698.5" enable-background="new 0 0 1698.5 1698.5" xml:space="preserve">
<path display="none" fill="#F49712" d="M1546.32,902.182L849.25,1599.25L152.178,902.182c-41.342-41.342-41.342-108.369,0-149.713
	l622.211-622.212c41.343-41.342,108.374-41.342,149.719,0l622.213,622.212C1587.664,793.812,1587.664,860.84,1546.32,902.182z"/>
<g>
	<polygon fill="#F49712" points="326.763,1076.766 849.25,1599.25 1371.736,1076.766 	"/>
	<path fill="#F49712" d="M152.177,752.469c-41.342,41.344-41.342,108.371,0,149.713l174.585,174.584h1044.974l174.584-174.584
		c41.344-41.342,41.344-108.369,0-149.713l-175.703-175.703H327.881L152.177,752.469z"/>
	<path fill="#F49712" d="M1370.617,576.766l-446.51-446.509c-41.345-41.342-108.376-41.342-149.719,0L327.881,576.766H1370.617z"/>
</g>
</svg>
